<svg width="580" height="579" viewBox="0 0 580 579" fill="none" xmlns="http://www.w3.org/2000/svg">
<rect x="34.5" y="34.5" width="511" height="510" rx="84.5" fill="white" stroke="black" stroke-width="69"/>
<rect x="55.5" y="55.5" width="469" height="468" rx="63.5" fill="white" stroke="#B171D2" stroke-width="27"/>
<path d="M204.751 355.243L236.106 372.802L185.938 395.378L152.074 377.819V326.396L375.323 227.314L342.714 208.501L390.374 185.925L426.746 204.738V256.161L204.751 355.243Z" fill="#B171D2"/>
<path d="M290.036 445.546L219.801 410.429L266.206 387.853L290.036 400.395L318.883 387.853L361.526 410.429L290.036 445.546Z" fill="#B171D2"/>
<path d="M386.612 396.632L293.801 350.227L337.698 328.905L386.612 353.989V307.584L428.001 290.025V377.819L386.612 396.632Z" fill="#B171D2"/>
<path d="M194.717 273.72L152.074 292.533V203.484L194.717 184.671L287.529 232.331L242.377 252.398L194.717 227.314V273.72Z" fill="#B171D2"/>
<path d="M267.461 193.451L219.801 170.875L290.036 133.249L361.526 170.875L313.866 193.451L290.036 183.417L267.461 193.451Z" fill="#B171D2"/>
</svg>
