<svg width="580" height="579" viewBox="0 0 580 579" fill="none" xmlns="http://www.w3.org/2000/svg">
<rect x="34.5" y="34.5" width="511" height="510" rx="84.5" fill="white" stroke="black" stroke-width="69"/>
<rect x="55.5" y="55.5" width="469" height="468" rx="63.5" fill="white" stroke="#B171D2" stroke-width="27"/>
<path d="M356.72 412.825L282.628 305.175L272.077 289.852L186.101 164.933H223.084L292.615 265.956L303.164 281.281L393.705 412.825H356.72ZM408.994 402.31L315.673 266.731L305.121 251.4L238.366 154.417L232.833 146.379H150.805L170.81 175.451L259.569 304.415L270.12 319.732L341.436 423.352L346.97 431.38H429L408.994 402.31Z" fill="#B171D2"/>
<path d="M272.077 289.851L282.628 305.175L270.12 319.732L174.15 431.38H150.484L259.569 304.415L272.077 289.851Z" fill="#B171D2"/>
<path d="M419.125 146.379L315.675 266.731L303.167 281.28L292.617 265.956L305.123 251.399L375.202 169.833L395.46 146.379H419.125Z" fill="#B171D2"/>
</svg>
