<svg width="580" height="579" viewBox="0 0 580 579" fill="none" xmlns="http://www.w3.org/2000/svg">
<rect x="34.5" y="34.5" width="511" height="510" rx="84.5" fill="white" stroke="black" stroke-width="69"/>
<rect x="55.5" y="55.5" width="469" height="468" rx="63.5" fill="white" stroke="#B171D2" stroke-width="27"/>
<path d="M431.4 168.445C430.307 165.22 429.002 164.372 426.965 163.565C422.508 161.911 414.96 164.414 414.96 164.414C414.96 164.414 147.724 260.638 132.457 271.287C129.17 273.578 128.069 274.936 127.522 276.506C124.883 284.058 133.105 287.41 133.105 287.41L201.985 309.896C201.985 309.896 204.552 310.278 205.467 309.684C221.136 299.756 363.118 209.981 371.307 206.968C372.599 206.586 373.556 207.011 373.302 207.902C370.023 219.442 246.705 329.2 246.705 329.2C246.705 329.2 246.235 329.794 245.939 330.473L245.778 330.388L239.351 398.823C239.351 398.823 236.657 419.782 257.588 398.823C272.355 384.016 286.644 371.627 293.794 365.645C317.478 382.022 342.967 400.138 353.968 409.599C359.492 414.351 364.114 415.115 367.918 414.987C378.36 414.605 381.274 403.108 381.274 403.108C381.274 403.108 429.972 206.799 431.599 180.494C431.76 177.906 431.98 176.294 431.997 174.512C432.027 172.051 431.798 169.59 431.4 168.445Z" fill="#B171D2"/>
</svg>
